<?xml version="1.0" encoding="UTF-8"?>
<svg width="20px" height="18px" viewBox="0 0 20 18" version="1.1" xmlns="http://www.w3.org/2000/svg" xmlns:xlink="http://www.w3.org/1999/xlink">
    <!-- Generator: Sketch 48.2 (47327) - http://www.bohemiancoding.com/sketch -->
    <title>instagram</title>
    <desc>Created with Sketch.</desc>
    <defs></defs>
    <g id="Assets-btn-image-icons" stroke="none" stroke-width="1" fill="none" fill-rule="evenodd" transform="translate(-215.000000, -2101.000000)">
        <path d="M233.522301,2119 L216.478701,2119 C215.661761,2119 215,2118.42174 215,2117.70865 L215,2102.29035 C215,2101.57826 215.661761,2101 216.478701,2101 L233.522301,2101 C234.338239,2101 235,2101.57826 235,2102.29035 L235,2117.70865 C235,2118.42174 234.338239,2119 233.522301,2119 L233.522301,2119 Z M218.465986,2116.03479 L221.411373,2116.03479 L221.411373,2107.90817 L218.465986,2107.90817 L218.465986,2116.03479 L218.465986,2116.03479 Z M219.958703,2103.99118 C218.950543,2103.99118 218.292787,2104.5974 218.292787,2105.39538 C218.292787,2106.17439 218.931521,2106.79959 219.919658,2106.79959 L219.938679,2106.79959 C220.965861,2106.79959 221.604595,2106.17439 221.604595,2105.39538 C221.586575,2104.5974 220.965861,2103.99118 219.958703,2103.99118 L219.958703,2103.99118 Z M232.031586,2111.37574 C232.031586,2108.87893 230.577915,2107.71742 228.640687,2107.71742 C227.076888,2107.71742 226.378085,2108.50541 225.986635,2109.0597 L225.986635,2107.90817 L223.041247,2107.90817 C223.080292,2108.6712 223.041247,2116.03479 223.041247,2116.03479 L225.986635,2116.03479 L225.986635,2111.49659 C225.986635,2111.2549 226.005657,2111.01121 226.083746,2110.83843 C226.29599,2110.35305 226.781549,2109.85069 227.594484,2109.85069 C228.66071,2109.85069 229.086199,2110.59574 229.086199,2111.68834 L229.086199,2116.03479 L232.031586,2116.03479 L232.031586,2111.37574 L232.031586,2111.37574 Z M225.966612,2109.08667 C225.972619,2109.07768 225.980628,2109.06869 225.986635,2109.0597 L225.986635,2109.08667 L225.966612,2109.08667 L225.966612,2109.08667 Z" id="instagram" fill="#FFFFFF"></path>
    </g>
</svg>