<?xml version="1.0" encoding="UTF-8"?>
<svg width="14px" height="18px" viewBox="0 0 14 18" version="1.1" xmlns="http://www.w3.org/2000/svg" xmlns:xlink="http://www.w3.org/1999/xlink">
    <!-- Generator: Sketch 48.2 (47327) - http://www.bohemiancoding.com/sketch -->
    <title>pinterest</title>
    <desc>Created with Sketch.</desc>
    <defs></defs>
    <g id="Assets-btn-image-icons" stroke="none" stroke-width="1" fill="none" fill-rule="evenodd" transform="translate(-254.000000, -2101.000000)">
        <path d="M261.424061,2101 C256.488355,2101 254,2104.52159 254,2107.45924 C254,2109.23703 254.676097,2110.81885 256.127304,2111.40878 C256.365338,2111.50577 256.578368,2111.41178 256.647378,2111.14981 C256.695385,2110.96883 256.809401,2110.51088 256.859408,2110.31991 C256.929418,2110.06094 256.902415,2109.96995 256.710387,2109.74397 C256.291327,2109.25303 256.024289,2108.61711 256.024289,2107.71621 C256.024289,2105.10352 257.98857,2102.76479 261.13902,2102.76479 C263.928418,2102.76479 265.460637,2104.46159 265.460637,2106.72633 C265.460637,2109.70798 264.135448,2112.22368 262.167167,2112.22368 C261.081012,2112.22368 260.267895,2111.32879 260.527933,2110.23192 C260.840977,2108.92307 261.445064,2107.50924 261.445064,2106.56335 C261.445064,2105.71745 260.988998,2105.01153 260.043863,2105.01153 C258.933705,2105.01153 258.041577,2106.15539 258.041577,2107.68722 C258.041577,2108.6641 258.372625,2109.32402 258.372625,2109.32402 C258.372625,2109.32402 257.235462,2114.11746 257.036434,2114.95736 C256.639377,2116.62917 256.977425,2118.67892 257.005429,2118.8869 C257.022432,2119.00889 257.180454,2119.03788 257.252465,2118.94589 C257.354479,2118.81191 258.677668,2117.1871 259.127733,2115.56229 C259.254751,2115.10234 259.857837,2112.72062 259.857837,2112.72062 C260.218888,2113.40554 261.274039,2114.00947 262.395199,2114.00947 C265.734676,2114.00947 268,2110.97883 268,2106.9233 C268,2103.85666 265.390627,2101 261.424061,2101 L261.424061,2101 Z" id="pinterest" fill="#FFFFFF"></path>
    </g>
</svg>