<?xml version="1.0" encoding="UTF-8"?>
<svg width="21px" height="16px" viewBox="0 0 21 16" version="1.1" xmlns="http://www.w3.org/2000/svg" xmlns:xlink="http://www.w3.org/1999/xlink">
    <!-- Generator: Sketch 48.2 (47327) - http://www.bohemiancoding.com/sketch -->
    <title>twitter</title>
    <desc>Created with Sketch.</desc>
    <defs></defs>
    <g id="Assets-btn-image-icons" stroke="none" stroke-width="1" fill="none" fill-rule="evenodd" transform="translate(-174.000000, -2102.000000)">
        <path d="M195,2103.89488 C194.227294,2104.21686 193.396611,2104.43185 192.525942,2104.52984 C193.415604,2104.02987 194.098343,2103.23792 194.420221,2102.29598 C193.586538,2102.75795 192.66489,2103.09393 191.683264,2103.27592 C190.898562,2102.48997 189.777989,2102 188.539461,2102 C186.160367,2102 184.230103,2103.80889 184.230103,2106.03875 C184.230103,2106.35573 184.268088,2106.66471 184.34206,2106.95969 C180.761424,2106.7907 177.586634,2105.1828 175.461443,2102.73995 C175.090585,2103.33692 174.878665,2104.02987 174.878665,2104.77083 C174.878665,2106.17074 175.639375,2107.40866 176.794935,2108.13262 C176.089204,2108.11062 175.425457,2107.92963 174.843679,2107.62665 L174.843679,2107.67865 C174.843679,2109.63552 176.328113,2111.26742 178.299362,2111.6384 C177.9385,2111.73039 177.556645,2111.77839 177.164794,2111.77839 C176.8869,2111.77839 176.617003,2111.75439 176.354103,2111.70839 C176.901895,2113.31129 178.493288,2114.48022 180.37857,2114.51322 C178.904132,2115.59615 177.046839,2116.24111 175.027609,2116.24111 C174.679741,2116.24111 174.336872,2116.22211 174,2116.18511 C175.906274,2117.33004 178.171411,2118 180.604484,2118 C188.529465,2118 192.862814,2111.84438 192.862814,2106.50772 C192.862814,2106.33173 192.857816,2106.15874 192.849819,2105.98475 C193.691498,2105.41479 194.42222,2104.70383 195,2103.89488 L195,2103.89488 Z" id="twitter" fill="#FFFFFF"></path>
    </g>
</svg>